<?xml version="1.0" encoding="UTF-8"?>
<svg id="Layer_1" data-name="Layer 1" xmlns="http://www.w3.org/2000/svg" viewBox="0 0 124.62 159.69">
  <defs>
    <style>
      .cls-1 {
        fill: #fff;
      }
    </style>
  </defs>
  <path class="cls-1" d="m60.54,159.69c-3.98,0-6.91-5.25-9.79-17.52-9.67-41.21-10.9-76.9-4.1-119.35.28-2.1,2.85-19.31,12.16-22.6l.61-.22.62.19c.77.23,7.64,2.75,11.88,20.46,4.44,18.52,8.15,67.24-.82,119.16-1.17,5.97-4.51,19.78-10.47,19.89-.03,0-.06,0-.09,0Zm-1.15-155.4c-5.5,2.85-8.21,14.6-8.81,19.08v.05c-4.74,29.57-7.96,66.7,4.04,117.84,3.31,14.1,5.9,14.45,5.93,14.45h0c1.54-.03,4.84-7.45,6.64-16.63,8.86-51.29,5.24-99.3.87-117.51-3-12.49-7.18-16.29-8.66-17.28Z"/>
  <path class="cls-1" d="m118.97,139.34c-3.69,0-9.16-2.21-16.87-6.75C62.92,109.54,34.9,83.64,8.41,45.96c-.72-.97-12.27-16.76-7.06-26.95l.27-.52.51-.3c.79-.46,8.25-4.18,25.09,5.61,17.69,10.28,57.63,43.96,89.47,90.59,2.75,4.25,11.29,18.37,6.51,23.36-1.02,1.06-2.41,1.6-4.23,1.6ZM4.59,21.47c-2.69,6.82,4.08,18.2,7.02,22.13l.03.05c18.45,26.24,43.86,56.92,92.48,85.52,13.55,7.97,15.97,6.07,16.2,5.83,1.75-1.83-2.26-11.17-6.95-18.4C81.93,70.54,42.61,37.34,25.22,27.24c-12.43-7.22-18.85-6.28-20.63-5.76Z"/>
  <path class="cls-1" d="m8.15,141.24c-2.19,0-4.14-.52-5.6-1.83-3.83-3.46-2.98-10.62,2.69-22.54C24.87,75.58,49.48,47.04,87.53,21.42c1.04-.75,16.87-11.92,28.88-5.21l.41.23.26.38c.25.36,5.97,9.07-2.45,27.09-8.72,18.66-40.16,59.69-87.4,90.35-2.35,1.43-11.94,6.97-19.08,6.97ZM107.75,18.05c-8.72,0-17.8,6.52-17.91,6.61l-.06.04c-26.41,17.78-56.68,42.83-80.95,93.88-6.35,13.35-4.64,16.95-3.62,17.88,2.97,2.69,13.43-1.63,19.91-5.56,46.49-30.17,77.37-70.4,85.91-88.66,6.43-13.76,3.76-21.12,2.95-22.81-1.96-.98-4.09-1.38-6.23-1.38Z"/>
  <g>
    <circle class="cls-1" cx="20.31" cy="57.99" r="3.18"/>
    <path class="cls-1" d="m20.31,63.16c-2.85,0-5.17-2.32-5.17-5.17s2.32-5.17,5.17-5.17,5.17,2.32,5.17,5.17-2.32,5.17-5.17,5.17Zm0-6.36c-.65,0-1.19.53-1.19,1.19s.53,1.19,1.19,1.19,1.19-.53,1.19-1.19-.53-1.19-1.19-1.19Z"/>
  </g>
  <g>
    <circle class="cls-1" cx="97.71" cy="66.63" r="3.18"/>
    <path class="cls-1" d="m97.71,71.8c-2.85,0-5.17-2.32-5.17-5.17s2.32-5.17,5.17-5.17,5.17,2.32,5.17,5.17-2.32,5.17-5.17,5.17Zm0-6.36c-.65,0-1.19.53-1.19,1.19s.53,1.19,1.19,1.19,1.19-.53,1.19-1.19-.53-1.19-1.19-1.19Z"/>
  </g>
  <g>
    <circle class="cls-1" cx="50.72" cy="134.17" r="3.18"/>
    <path class="cls-1" d="m50.72,139.33c-2.85,0-5.17-2.32-5.17-5.17s2.32-5.17,5.17-5.17,5.17,2.32,5.17,5.17-2.32,5.17-5.17,5.17Zm0-6.36c-.66,0-1.19.53-1.19,1.19s.53,1.19,1.19,1.19,1.19-.53,1.19-1.19-.53-1.19-1.19-1.19Z"/>
  </g>
  <g>
    <circle class="cls-1" cx="59.72" cy="72.86" r="3.18"/>
    <path class="cls-1" d="m59.72,78.03c-2.85,0-5.17-2.32-5.17-5.17s2.32-5.17,5.17-5.17,5.17,2.32,5.17,5.17-2.32,5.17-5.17,5.17Zm0-6.36c-.66,0-1.19.53-1.19,1.19s.53,1.19,1.19,1.19,1.19-.53,1.19-1.19-.53-1.19-1.19-1.19Z"/>
  </g>
</svg>