<?xml version="1.0" encoding="UTF-8"?>
<svg id="Layer_1" data-name="Layer 1" xmlns="http://www.w3.org/2000/svg" viewBox="0 0 167.89 215.13">
  <defs>
    <style>
      .cls-1 {
        fill: #231f20;
      }
    </style>
  </defs>
  <path class="cls-1" d="m81.55,215.13c-5.36,0-9.31-7.08-13.19-23.6-13.02-55.51-14.68-103.59-5.53-160.79.38-2.83,3.83-26.01,16.38-30.45l.82-.29.84.25c1.04.31,10.29,3.71,16.01,27.56,5.98,24.95,10.97,90.59-1.11,160.53-1.57,8.05-6.07,26.64-14.11,26.79-.04,0-.08,0-.12,0Zm-1.55-209.36c-7.41,3.84-11.06,19.67-11.87,25.7v.07c-6.39,39.84-10.73,89.86,5.44,158.75,4.45,18.99,7.95,19.47,7.99,19.47h0c2.07-.04,6.53-10.04,8.94-22.41,11.94-69.09,7.05-133.78,1.17-158.31-4.04-16.82-9.67-21.94-11.67-23.28Z"/>
  <path class="cls-1" d="m160.28,187.72c-4.98,0-12.34-2.98-22.72-9.09C84.76,147.58,47.01,112.67,11.33,61.91c-.98-1.31-16.53-22.58-9.52-36.31l.36-.71.69-.4c1.06-.62,11.11-5.63,33.8,7.56,23.83,13.84,77.63,59.22,120.54,122.04,3.71,5.72,15.2,24.74,8.77,31.47-1.37,1.43-3.24,2.16-5.69,2.16ZM6.18,28.93c-3.62,9.18,5.5,24.51,9.46,29.81l.05.06c24.85,35.35,59.08,76.68,124.58,115.21,18.25,10.74,21.52,8.18,21.83,7.85,2.36-2.46-3.04-15.04-9.36-24.79C110.37,95.03,57.4,50.3,33.98,36.69c-16.74-9.73-25.4-8.46-27.79-7.76Z"/>
  <path class="cls-1" d="m10.98,190.27c-2.95,0-5.58-.7-7.54-2.47-5.16-4.66-4.01-14.31,3.62-30.37C33.5,101.83,66.65,63.37,117.91,28.86c1.4-1.01,22.73-16.06,38.9-7.02l.55.31.36.52c.33.49,8.04,12.22-3.3,36.49-11.75,25.14-54.11,80.42-117.74,121.71-3.17,1.93-16.08,9.4-25.71,9.4ZM145.16,24.32c-11.74,0-23.98,8.79-24.13,8.9l-.08.06c-35.58,23.95-76.35,57.7-109.05,126.47-8.55,17.99-6.26,22.83-4.87,24.08,4,3.62,18.09-2.2,26.82-7.49,62.63-40.64,104.23-94.84,115.73-119.45,8.66-18.54,5.07-28.45,3.98-30.72-2.64-1.32-5.5-1.85-8.39-1.85Z"/>
  <g>
    <circle class="cls-1" cx="27.37" cy="78.13" r="4.28"/>
    <path class="cls-1" d="m27.37,85.09c-3.84,0-6.96-3.12-6.96-6.96s3.12-6.96,6.96-6.96,6.96,3.12,6.96,6.96-3.12,6.96-6.96,6.96Zm0-8.56c-.88,0-1.6.72-1.6,1.6s.72,1.6,1.6,1.6,1.6-.72,1.6-1.6-.72-1.6-1.6-1.6Z"/>
  </g>
  <g>
    <circle class="cls-1" cx="131.64" cy="89.76" r="4.28"/>
    <path class="cls-1" d="m131.64,96.72c-3.84,0-6.96-3.12-6.96-6.96s3.12-6.96,6.96-6.96,6.96,3.12,6.96,6.96-3.12,6.96-6.96,6.96Zm0-8.56c-.88,0-1.6.72-1.6,1.6s.72,1.6,1.6,1.6,1.6-.72,1.6-1.6-.72-1.6-1.6-1.6Z"/>
  </g>
  <g>
    <circle class="cls-1" cx="68.32" cy="180.75" r="4.28"/>
    <path class="cls-1" d="m68.32,187.71c-3.84,0-6.96-3.12-6.96-6.96s3.12-6.96,6.96-6.96,6.96,3.12,6.96,6.96-3.12,6.96-6.96,6.96Zm0-8.56c-.88,0-1.6.72-1.6,1.6s.72,1.6,1.6,1.6,1.6-.72,1.6-1.6-.72-1.6-1.6-1.6Z"/>
  </g>
  <g>
    <circle class="cls-1" cx="80.46" cy="98.16" r="4.28"/>
    <path class="cls-1" d="m80.46,105.12c-3.84,0-6.96-3.12-6.96-6.96s3.12-6.96,6.96-6.96,6.96,3.12,6.96,6.96-3.12,6.96-6.96,6.96Zm0-8.56c-.88,0-1.6.72-1.6,1.6s.72,1.6,1.6,1.6,1.6-.72,1.6-1.6-.72-1.6-1.6-1.6Z"/>
  </g>
</svg>